<mxfile host="app.diagrams.net" agent="Mozilla/5.0 (Windows NT 10.0; Win64; x64) AppleWebKit/537.36 (KHTML, like Gecko) Chrome/138.0.0.0 Safari/537.36" version="28.0.6">
  <diagram name="Page-1" id="jH1K0BGxO3e3UOhzepeJ">
    <mxGraphModel dx="1426" dy="743" grid="1" gridSize="10" guides="1" tooltips="1" connect="1" arrows="1" fold="1" page="1" pageScale="1" pageWidth="850" pageHeight="1100" math="0" shadow="0">
      <root>
        <mxCell id="0" />
        <mxCell id="1" parent="0" />
        <mxCell id="c7ZrV1y51mjeWRv_r3tA-1" value="" style="outlineConnect=0;dashed=0;verticalLabelPosition=bottom;verticalAlign=top;align=center;html=1;shape=mxgraph.aws3.door_lock;fillColor=#5294CF;gradientColor=none;fontFamily=Times New Roman;" vertex="1" parent="1">
          <mxGeometry x="730" y="320" width="60" height="60" as="geometry" />
        </mxCell>
        <mxCell id="c7ZrV1y51mjeWRv_r3tA-3" value="&lt;font style=&quot;font-size: 20px;&quot;&gt;&lt;b style=&quot;&quot;&gt;Login/Signup Gateway&lt;/b&gt;&lt;/font&gt;" style="text;strokeColor=none;align=center;fillColor=none;html=1;verticalAlign=middle;whiteSpace=wrap;rounded=0;fontFamily=Times New Roman;" vertex="1" parent="1">
          <mxGeometry x="345" y="30" width="230" height="30" as="geometry" />
        </mxCell>
        <mxCell id="c7ZrV1y51mjeWRv_r3tA-4" value="" style="image;aspect=fixed;perimeter=ellipsePerimeter;html=1;align=center;shadow=0;dashed=0;spacingTop=3;image=img/lib/active_directory/interface.svg;fontFamily=Times New Roman;" vertex="1" parent="1">
          <mxGeometry x="40" y="320" width="85.1" height="40" as="geometry" />
        </mxCell>
        <mxCell id="c7ZrV1y51mjeWRv_r3tA-6" value="&lt;font&gt;Login route&lt;/font&gt;" style="rounded=0;whiteSpace=wrap;html=1;fillColor=#dae8fc;strokeColor=#6c8ebf;fontFamily=Times New Roman;" vertex="1" parent="1">
          <mxGeometry x="160" y="240" width="100" height="40" as="geometry" />
        </mxCell>
        <mxCell id="c7ZrV1y51mjeWRv_r3tA-8" value="&lt;font&gt;Sign Up route&lt;/font&gt;" style="rounded=0;whiteSpace=wrap;html=1;fillColor=#dae8fc;strokeColor=#6c8ebf;fontFamily=Times New Roman;" vertex="1" parent="1">
          <mxGeometry x="160" y="400" width="100" height="40" as="geometry" />
        </mxCell>
        <mxCell id="c7ZrV1y51mjeWRv_r3tA-9" value="" style="shape=image;html=1;verticalAlign=top;verticalLabelPosition=bottom;labelBackgroundColor=#ffffff;imageAspect=0;aspect=fixed;image=https://icons.diagrams.net/icon-cache1/Boxicons_Solid_Vol_2-2639/bxs-notepad-863.svg;fontFamily=Times New Roman;" vertex="1" parent="1">
          <mxGeometry x="310" y="225" width="70" height="70" as="geometry" />
        </mxCell>
        <mxCell id="c7ZrV1y51mjeWRv_r3tA-10" value="&lt;font style=&quot;font-size: 10px;&quot;&gt;{&lt;/font&gt;&lt;div style=&quot;&quot;&gt;&lt;font style=&quot;font-size: 10px;&quot;&gt;&lt;span style=&quot;white-space: pre;&quot;&gt;&#x9;&lt;/span&gt;username: &quot;&quot;,&lt;br&gt;&lt;/font&gt;&lt;/div&gt;&lt;div style=&quot;&quot;&gt;&lt;font style=&quot;font-size: 10px;&quot;&gt;&lt;span style=&quot;white-space: pre;&quot;&gt;&#x9;&lt;/span&gt;password: &quot;&quot;&lt;br&gt;&lt;/font&gt;&lt;/div&gt;&lt;div&gt;&lt;font style=&quot;font-size: 10px;&quot;&gt;}&lt;/font&gt;&lt;/div&gt;" style="rounded=0;whiteSpace=wrap;html=1;fillColor=#e1d5e7;strokeColor=#9673a6;align=left;fontFamily=Times New Roman;" vertex="1" parent="1">
          <mxGeometry x="240" y="130" width="90" height="70" as="geometry" />
        </mxCell>
        <mxCell id="c7ZrV1y51mjeWRv_r3tA-13" value="&lt;font&gt;Backend API Call&lt;/font&gt;" style="rounded=0;whiteSpace=wrap;html=1;fillColor=#dae8fc;strokeColor=#6c8ebf;fontFamily=Times New Roman;" vertex="1" parent="1">
          <mxGeometry x="480" y="240" width="100" height="40" as="geometry" />
        </mxCell>
        <mxCell id="c7ZrV1y51mjeWRv_r3tA-15" value="Database" style="shape=cylinder3;whiteSpace=wrap;html=1;boundedLbl=1;backgroundOutline=1;size=15;fillColor=#fff2cc;strokeColor=#d6b656;fontFamily=Times New Roman;" vertex="1" parent="1">
          <mxGeometry x="640" y="120" width="80" height="80" as="geometry" />
        </mxCell>
        <mxCell id="c7ZrV1y51mjeWRv_r3tA-17" value=".post(&quot;/login&quot;)" style="rounded=0;whiteSpace=wrap;html=1;fillColor=#e1d5e7;strokeColor=#9673a6;align=center;fontFamily=Times New Roman;" vertex="1" parent="1">
          <mxGeometry x="480" y="150" width="100" height="50" as="geometry" />
        </mxCell>
        <mxCell id="c7ZrV1y51mjeWRv_r3tA-19" value="" style="shape=image;html=1;verticalAlign=top;verticalLabelPosition=bottom;labelBackgroundColor=#ffffff;imageAspect=0;aspect=fixed;image=https://icons.diagrams.net/icon-cache1/Boxicons_Solid_Vol_2-2639/bxs-notepad-863.svg;fontFamily=Times New Roman;" vertex="1" parent="1">
          <mxGeometry x="310" y="385" width="70" height="70" as="geometry" />
        </mxCell>
        <mxCell id="c7ZrV1y51mjeWRv_r3tA-20" value="&lt;font style=&quot;font-size: 10px;&quot;&gt;{&lt;/font&gt;&lt;div style=&quot;&quot;&gt;&lt;font style=&quot;font-size: 10px;&quot;&gt;&lt;span style=&quot;white-space: pre;&quot;&gt;&#x9;&lt;/span&gt;username: &quot;&quot;,&lt;br&gt;&lt;/font&gt;&lt;/div&gt;&lt;div style=&quot;&quot;&gt;&lt;font style=&quot;font-size: 10px;&quot;&gt;&lt;span style=&quot;white-space: pre;&quot;&gt;&#x9;&lt;/span&gt;name: &quot;&quot;,&lt;br&gt;&lt;/font&gt;&lt;/div&gt;&lt;div style=&quot;&quot;&gt;&lt;font style=&quot;font-size: 10px;&quot;&gt;&lt;span style=&quot;white-space: pre;&quot;&gt;&#x9;&lt;/span&gt;email: &quot;&quot;,&lt;/font&gt;&lt;/div&gt;&lt;div style=&quot;&quot;&gt;&lt;font style=&quot;font-size: 10px;&quot;&gt;&lt;span style=&quot;white-space: pre;&quot;&gt;&#x9;&lt;/span&gt;phone: &quot;&quot;,&lt;br&gt;&lt;/font&gt;&lt;/div&gt;&lt;div style=&quot;&quot;&gt;&lt;font style=&quot;font-size: 10px;&quot;&gt;&lt;span style=&quot;white-space: pre;&quot;&gt;&#x9;&lt;/span&gt;address: &quot;&quot;,&lt;br&gt;&lt;/font&gt;&lt;/div&gt;&lt;div style=&quot;&quot;&gt;&lt;font style=&quot;font-size: 10px;&quot;&gt;&lt;span style=&quot;white-space: pre;&quot;&gt;&#x9;&lt;/span&gt;dob: &quot;&quot;&lt;br&gt;&lt;/font&gt;&lt;/div&gt;&lt;div style=&quot;&quot;&gt;&lt;font style=&quot;font-size: 10px;&quot;&gt;&lt;span style=&quot;white-space: pre;&quot;&gt;&#x9;&lt;/span&gt;password: &quot;&quot;&lt;br&gt;&lt;/font&gt;&lt;/div&gt;&lt;div style=&quot;&quot;&gt;&lt;font style=&quot;font-size: 10px;&quot;&gt;&lt;span style=&quot;white-space: pre;&quot;&gt;&#x9;&lt;/span&gt;confirmPassword: &quot;&quot;&lt;br&gt;&lt;/font&gt;&lt;/div&gt;&lt;div&gt;&lt;font style=&quot;font-size: 10px;&quot;&gt;}&lt;/font&gt;&lt;/div&gt;" style="rounded=0;whiteSpace=wrap;html=1;fillColor=#e1d5e7;strokeColor=#9673a6;align=left;fontFamily=Times New Roman;" vertex="1" parent="1">
          <mxGeometry x="220" y="480" width="130" height="160" as="geometry" />
        </mxCell>
        <mxCell id="c7ZrV1y51mjeWRv_r3tA-21" value="&lt;font&gt;Backend API Call&lt;/font&gt;" style="rounded=0;whiteSpace=wrap;html=1;fillColor=#dae8fc;strokeColor=#6c8ebf;fontFamily=Times New Roman;" vertex="1" parent="1">
          <mxGeometry x="480" y="400" width="100" height="40" as="geometry" />
        </mxCell>
        <mxCell id="c7ZrV1y51mjeWRv_r3tA-22" value="&lt;div&gt;.post(&quot;/signup&quot;)&lt;/div&gt;.post(&quot;/login&quot;)" style="rounded=0;whiteSpace=wrap;html=1;fillColor=#e1d5e7;strokeColor=#9673a6;align=center;fontFamily=Times New Roman;" vertex="1" parent="1">
          <mxGeometry x="480" y="480" width="100" height="50" as="geometry" />
        </mxCell>
        <mxCell id="c7ZrV1y51mjeWRv_r3tA-23" value="Database" style="shape=cylinder3;whiteSpace=wrap;html=1;boundedLbl=1;backgroundOutline=1;size=15;fillColor=#fff2cc;strokeColor=#d6b656;fontFamily=Times New Roman;" vertex="1" parent="1">
          <mxGeometry x="640" y="480" width="80" height="80" as="geometry" />
        </mxCell>
        <mxCell id="c7ZrV1y51mjeWRv_r3tA-24" value="" style="endArrow=none;html=1;rounded=0;" edge="1" parent="1" source="c7ZrV1y51mjeWRv_r3tA-4">
          <mxGeometry width="50" height="50" relative="1" as="geometry">
            <mxPoint x="380" y="390" as="sourcePoint" />
            <mxPoint x="140" y="340" as="targetPoint" />
          </mxGeometry>
        </mxCell>
        <mxCell id="c7ZrV1y51mjeWRv_r3tA-25" value="" style="endArrow=none;html=1;rounded=0;" edge="1" parent="1">
          <mxGeometry width="50" height="50" relative="1" as="geometry">
            <mxPoint x="140" y="260" as="sourcePoint" />
            <mxPoint x="140" y="420" as="targetPoint" />
          </mxGeometry>
        </mxCell>
        <mxCell id="c7ZrV1y51mjeWRv_r3tA-26" value="" style="endArrow=classic;html=1;rounded=0;entryX=0;entryY=0.5;entryDx=0;entryDy=0;" edge="1" parent="1" target="c7ZrV1y51mjeWRv_r3tA-6">
          <mxGeometry width="50" height="50" relative="1" as="geometry">
            <mxPoint x="140" y="260" as="sourcePoint" />
            <mxPoint x="370" y="350" as="targetPoint" />
          </mxGeometry>
        </mxCell>
        <mxCell id="c7ZrV1y51mjeWRv_r3tA-28" value="" style="endArrow=classic;html=1;rounded=0;entryX=0;entryY=0.5;entryDx=0;entryDy=0;" edge="1" parent="1" target="c7ZrV1y51mjeWRv_r3tA-8">
          <mxGeometry width="50" height="50" relative="1" as="geometry">
            <mxPoint x="140" y="420" as="sourcePoint" />
            <mxPoint x="300" y="340" as="targetPoint" />
          </mxGeometry>
        </mxCell>
        <mxCell id="c7ZrV1y51mjeWRv_r3tA-29" value="" style="endArrow=classic;html=1;rounded=0;exitX=1;exitY=0.5;exitDx=0;exitDy=0;entryX=0;entryY=0.5;entryDx=0;entryDy=0;" edge="1" parent="1" source="c7ZrV1y51mjeWRv_r3tA-6" target="c7ZrV1y51mjeWRv_r3tA-9">
          <mxGeometry width="50" height="50" relative="1" as="geometry">
            <mxPoint x="250" y="300" as="sourcePoint" />
            <mxPoint x="300" y="250" as="targetPoint" />
          </mxGeometry>
        </mxCell>
        <mxCell id="c7ZrV1y51mjeWRv_r3tA-30" value="" style="endArrow=classic;html=1;rounded=0;exitX=1;exitY=0.5;exitDx=0;exitDy=0;entryX=0;entryY=0.5;entryDx=0;entryDy=0;" edge="1" parent="1" source="c7ZrV1y51mjeWRv_r3tA-8" target="c7ZrV1y51mjeWRv_r3tA-19">
          <mxGeometry width="50" height="50" relative="1" as="geometry">
            <mxPoint x="320" y="400" as="sourcePoint" />
            <mxPoint x="370" y="350" as="targetPoint" />
          </mxGeometry>
        </mxCell>
        <mxCell id="c7ZrV1y51mjeWRv_r3tA-34" value="" style="endArrow=none;html=1;rounded=0;" edge="1" parent="1">
          <mxGeometry width="50" height="50" relative="1" as="geometry">
            <mxPoint x="350" y="220" as="sourcePoint" />
            <mxPoint x="350" y="120" as="targetPoint" />
          </mxGeometry>
        </mxCell>
        <mxCell id="c7ZrV1y51mjeWRv_r3tA-36" value="" style="endArrow=none;html=1;rounded=0;" edge="1" parent="1">
          <mxGeometry width="50" height="50" relative="1" as="geometry">
            <mxPoint x="290" y="120" as="sourcePoint" />
            <mxPoint x="350" y="120" as="targetPoint" />
          </mxGeometry>
        </mxCell>
        <mxCell id="c7ZrV1y51mjeWRv_r3tA-37" value="" style="endArrow=classic;html=1;rounded=0;entryX=0.552;entryY=0.004;entryDx=0;entryDy=0;entryPerimeter=0;" edge="1" parent="1" target="c7ZrV1y51mjeWRv_r3tA-10">
          <mxGeometry width="50" height="50" relative="1" as="geometry">
            <mxPoint x="290" y="120" as="sourcePoint" />
            <mxPoint x="310" y="140" as="targetPoint" />
          </mxGeometry>
        </mxCell>
        <mxCell id="c7ZrV1y51mjeWRv_r3tA-38" value="" style="endArrow=none;html=1;rounded=0;exitX=-0.009;exitY=0.713;exitDx=0;exitDy=0;exitPerimeter=0;" edge="1" parent="1" source="c7ZrV1y51mjeWRv_r3tA-10">
          <mxGeometry width="50" height="50" relative="1" as="geometry">
            <mxPoint x="300" y="240" as="sourcePoint" />
            <mxPoint x="220" y="180" as="targetPoint" />
          </mxGeometry>
        </mxCell>
        <mxCell id="c7ZrV1y51mjeWRv_r3tA-39" value="" style="endArrow=none;html=1;rounded=0;" edge="1" parent="1">
          <mxGeometry width="50" height="50" relative="1" as="geometry">
            <mxPoint x="290" y="210" as="sourcePoint" />
            <mxPoint x="330" y="210" as="targetPoint" />
          </mxGeometry>
        </mxCell>
        <mxCell id="c7ZrV1y51mjeWRv_r3tA-40" value="" style="endArrow=classic;html=1;rounded=0;entryX=0.29;entryY=-0.019;entryDx=0;entryDy=0;entryPerimeter=0;" edge="1" parent="1" target="c7ZrV1y51mjeWRv_r3tA-9">
          <mxGeometry width="50" height="50" relative="1" as="geometry">
            <mxPoint x="330" y="210" as="sourcePoint" />
            <mxPoint x="320" y="210" as="targetPoint" />
          </mxGeometry>
        </mxCell>
        <mxCell id="c7ZrV1y51mjeWRv_r3tA-41" value="" style="endArrow=classic;html=1;rounded=0;exitX=1;exitY=0.5;exitDx=0;exitDy=0;entryX=0;entryY=0.5;entryDx=0;entryDy=0;" edge="1" parent="1" source="c7ZrV1y51mjeWRv_r3tA-9" target="c7ZrV1y51mjeWRv_r3tA-13">
          <mxGeometry width="50" height="50" relative="1" as="geometry">
            <mxPoint x="380" y="280" as="sourcePoint" />
            <mxPoint x="430" y="230" as="targetPoint" />
          </mxGeometry>
        </mxCell>
        <mxCell id="c7ZrV1y51mjeWRv_r3tA-42" value="" style="endArrow=classic;html=1;rounded=0;exitX=0.5;exitY=0;exitDx=0;exitDy=0;entryX=0.5;entryY=1;entryDx=0;entryDy=0;" edge="1" parent="1" source="c7ZrV1y51mjeWRv_r3tA-13" target="c7ZrV1y51mjeWRv_r3tA-17">
          <mxGeometry width="50" height="50" relative="1" as="geometry">
            <mxPoint x="400" y="260" as="sourcePoint" />
            <mxPoint x="450" y="210" as="targetPoint" />
          </mxGeometry>
        </mxCell>
        <mxCell id="c7ZrV1y51mjeWRv_r3tA-43" value="" style="endArrow=classic;html=1;rounded=0;exitX=1;exitY=0.5;exitDx=0;exitDy=0;" edge="1" parent="1" source="c7ZrV1y51mjeWRv_r3tA-17">
          <mxGeometry width="50" height="50" relative="1" as="geometry">
            <mxPoint x="400" y="260" as="sourcePoint" />
            <mxPoint x="630" y="175" as="targetPoint" />
          </mxGeometry>
        </mxCell>
        <mxCell id="c7ZrV1y51mjeWRv_r3tA-44" value="" style="endArrow=none;html=1;rounded=0;entryX=0;entryY=0.125;entryDx=0;entryDy=0;entryPerimeter=0;" edge="1" parent="1" target="c7ZrV1y51mjeWRv_r3tA-15">
          <mxGeometry width="50" height="50" relative="1" as="geometry">
            <mxPoint x="530" y="130" as="sourcePoint" />
            <mxPoint x="510" y="140" as="targetPoint" />
          </mxGeometry>
        </mxCell>
        <mxCell id="c7ZrV1y51mjeWRv_r3tA-45" value="" style="endArrow=classic;html=1;rounded=0;entryX=0.5;entryY=0;entryDx=0;entryDy=0;" edge="1" parent="1" target="c7ZrV1y51mjeWRv_r3tA-17">
          <mxGeometry width="50" height="50" relative="1" as="geometry">
            <mxPoint x="530" y="130" as="sourcePoint" />
            <mxPoint x="570" y="130" as="targetPoint" />
          </mxGeometry>
        </mxCell>
        <mxCell id="c7ZrV1y51mjeWRv_r3tA-47" value="" style="endArrow=none;html=1;rounded=0;exitX=0.2;exitY=-0.016;exitDx=0;exitDy=0;exitPerimeter=0;" edge="1" parent="1" source="c7ZrV1y51mjeWRv_r3tA-17">
          <mxGeometry width="50" height="50" relative="1" as="geometry">
            <mxPoint x="510" y="190" as="sourcePoint" />
            <mxPoint x="500" y="130" as="targetPoint" />
          </mxGeometry>
        </mxCell>
        <mxCell id="c7ZrV1y51mjeWRv_r3tA-49" value="" style="endArrow=none;html=1;rounded=0;" edge="1" parent="1">
          <mxGeometry width="50" height="50" relative="1" as="geometry">
            <mxPoint x="450" y="130" as="sourcePoint" />
            <mxPoint x="500" y="130" as="targetPoint" />
          </mxGeometry>
        </mxCell>
        <mxCell id="c7ZrV1y51mjeWRv_r3tA-50" value="" style="endArrow=none;html=1;rounded=0;" edge="1" parent="1">
          <mxGeometry width="50" height="50" relative="1" as="geometry">
            <mxPoint x="450" y="130" as="sourcePoint" />
            <mxPoint x="450" y="180" as="targetPoint" />
          </mxGeometry>
        </mxCell>
        <mxCell id="c7ZrV1y51mjeWRv_r3tA-51" value="" style="endArrow=classic;html=1;rounded=0;entryX=-0.003;entryY=0.598;entryDx=0;entryDy=0;entryPerimeter=0;" edge="1" parent="1" target="c7ZrV1y51mjeWRv_r3tA-17">
          <mxGeometry width="50" height="50" relative="1" as="geometry">
            <mxPoint x="450" y="180" as="sourcePoint" />
            <mxPoint x="500" y="140" as="targetPoint" />
          </mxGeometry>
        </mxCell>
        <mxCell id="c7ZrV1y51mjeWRv_r3tA-52" value="" style="endArrow=classic;html=1;rounded=0;exitX=0.25;exitY=1;exitDx=0;exitDy=0;entryX=0.25;entryY=0;entryDx=0;entryDy=0;" edge="1" parent="1" source="c7ZrV1y51mjeWRv_r3tA-17" target="c7ZrV1y51mjeWRv_r3tA-13">
          <mxGeometry width="50" height="50" relative="1" as="geometry">
            <mxPoint x="420" y="260" as="sourcePoint" />
            <mxPoint x="470" y="210" as="targetPoint" />
          </mxGeometry>
        </mxCell>
        <mxCell id="c7ZrV1y51mjeWRv_r3tA-53" value="" style="endArrow=none;html=1;rounded=0;exitX=1;exitY=0.5;exitDx=0;exitDy=0;" edge="1" parent="1" source="c7ZrV1y51mjeWRv_r3tA-100">
          <mxGeometry width="50" height="50" relative="1" as="geometry">
            <mxPoint x="480" y="380" as="sourcePoint" />
            <mxPoint x="640" y="260" as="targetPoint" />
          </mxGeometry>
        </mxCell>
        <mxCell id="c7ZrV1y51mjeWRv_r3tA-54" value="" style="endArrow=none;html=1;rounded=0;exitX=1;exitY=0.5;exitDx=0;exitDy=0;" edge="1" parent="1" source="c7ZrV1y51mjeWRv_r3tA-21">
          <mxGeometry width="50" height="50" relative="1" as="geometry">
            <mxPoint x="480" y="380" as="sourcePoint" />
            <mxPoint x="640" y="420" as="targetPoint" />
          </mxGeometry>
        </mxCell>
        <mxCell id="c7ZrV1y51mjeWRv_r3tA-55" value="" style="endArrow=none;html=1;rounded=0;" edge="1" parent="1">
          <mxGeometry width="50" height="50" relative="1" as="geometry">
            <mxPoint x="640" y="260" as="sourcePoint" />
            <mxPoint x="640" y="420" as="targetPoint" />
          </mxGeometry>
        </mxCell>
        <mxCell id="c7ZrV1y51mjeWRv_r3tA-56" value="" style="endArrow=classic;html=1;rounded=0;entryX=0;entryY=0.5;entryDx=0;entryDy=0;entryPerimeter=0;" edge="1" parent="1" target="c7ZrV1y51mjeWRv_r3tA-1">
          <mxGeometry width="50" height="50" relative="1" as="geometry">
            <mxPoint x="640" y="350" as="sourcePoint" />
            <mxPoint x="530" y="330" as="targetPoint" />
          </mxGeometry>
        </mxCell>
        <mxCell id="c7ZrV1y51mjeWRv_r3tA-59" value="" style="endArrow=none;html=1;rounded=0;exitX=0.715;exitY=0.965;exitDx=0;exitDy=0;exitPerimeter=0;" edge="1" parent="1" source="c7ZrV1y51mjeWRv_r3tA-19">
          <mxGeometry width="50" height="50" relative="1" as="geometry">
            <mxPoint x="360" y="460" as="sourcePoint" />
            <mxPoint x="360" y="560" as="targetPoint" />
          </mxGeometry>
        </mxCell>
        <mxCell id="c7ZrV1y51mjeWRv_r3tA-60" value="" style="endArrow=classic;html=1;rounded=0;entryX=1;entryY=0.5;entryDx=0;entryDy=0;" edge="1" parent="1" target="c7ZrV1y51mjeWRv_r3tA-20">
          <mxGeometry width="50" height="50" relative="1" as="geometry">
            <mxPoint x="360" y="560" as="sourcePoint" />
            <mxPoint x="400" y="460" as="targetPoint" />
          </mxGeometry>
        </mxCell>
        <mxCell id="c7ZrV1y51mjeWRv_r3tA-62" value="" style="endArrow=none;html=1;rounded=0;" edge="1" parent="1">
          <mxGeometry width="50" height="50" relative="1" as="geometry">
            <mxPoint x="240" y="470" as="sourcePoint" />
            <mxPoint x="320" y="470" as="targetPoint" />
          </mxGeometry>
        </mxCell>
        <mxCell id="c7ZrV1y51mjeWRv_r3tA-63" value="" style="endArrow=classic;html=1;rounded=0;entryX=0.146;entryY=0.993;entryDx=0;entryDy=0;entryPerimeter=0;" edge="1" parent="1" target="c7ZrV1y51mjeWRv_r3tA-19">
          <mxGeometry width="50" height="50" relative="1" as="geometry">
            <mxPoint x="320" y="470" as="sourcePoint" />
            <mxPoint x="320" y="460" as="targetPoint" />
          </mxGeometry>
        </mxCell>
        <mxCell id="c7ZrV1y51mjeWRv_r3tA-64" value="" style="endArrow=classic;html=1;rounded=0;entryX=0;entryY=0.5;entryDx=0;entryDy=0;exitX=1;exitY=0.5;exitDx=0;exitDy=0;" edge="1" parent="1" source="c7ZrV1y51mjeWRv_r3tA-19" target="c7ZrV1y51mjeWRv_r3tA-21">
          <mxGeometry width="50" height="50" relative="1" as="geometry">
            <mxPoint x="420" y="410" as="sourcePoint" />
            <mxPoint x="470" y="360" as="targetPoint" />
          </mxGeometry>
        </mxCell>
        <mxCell id="c7ZrV1y51mjeWRv_r3tA-65" value="" style="endArrow=classic;html=1;rounded=0;entryX=0.25;entryY=1;entryDx=0;entryDy=0;exitX=0.25;exitY=0;exitDx=0;exitDy=0;" edge="1" parent="1" source="c7ZrV1y51mjeWRv_r3tA-22" target="c7ZrV1y51mjeWRv_r3tA-21">
          <mxGeometry width="50" height="50" relative="1" as="geometry">
            <mxPoint x="420" y="410" as="sourcePoint" />
            <mxPoint x="470" y="360" as="targetPoint" />
          </mxGeometry>
        </mxCell>
        <mxCell id="c7ZrV1y51mjeWRv_r3tA-66" value="" style="endArrow=classic;html=1;rounded=0;exitX=0.5;exitY=1;exitDx=0;exitDy=0;entryX=0.5;entryY=0;entryDx=0;entryDy=0;" edge="1" parent="1" source="c7ZrV1y51mjeWRv_r3tA-21" target="c7ZrV1y51mjeWRv_r3tA-22">
          <mxGeometry width="50" height="50" relative="1" as="geometry">
            <mxPoint x="420" y="410" as="sourcePoint" />
            <mxPoint x="470" y="360" as="targetPoint" />
          </mxGeometry>
        </mxCell>
        <mxCell id="c7ZrV1y51mjeWRv_r3tA-68" value="" style="endArrow=none;html=1;rounded=0;exitX=0.196;exitY=0.998;exitDx=0;exitDy=0;exitPerimeter=0;" edge="1" parent="1" source="c7ZrV1y51mjeWRv_r3tA-22">
          <mxGeometry width="50" height="50" relative="1" as="geometry">
            <mxPoint x="480" y="470" as="sourcePoint" />
            <mxPoint x="500" y="590" as="targetPoint" />
          </mxGeometry>
        </mxCell>
        <mxCell id="c7ZrV1y51mjeWRv_r3tA-71" value="" style="endArrow=none;html=1;rounded=0;" edge="1" parent="1">
          <mxGeometry width="50" height="50" relative="1" as="geometry">
            <mxPoint x="460" y="560" as="sourcePoint" />
            <mxPoint x="460" y="500" as="targetPoint" />
          </mxGeometry>
        </mxCell>
        <mxCell id="c7ZrV1y51mjeWRv_r3tA-72" value="" style="endArrow=classic;html=1;rounded=0;entryX=-0.023;entryY=0.401;entryDx=0;entryDy=0;entryPerimeter=0;" edge="1" parent="1" target="c7ZrV1y51mjeWRv_r3tA-22">
          <mxGeometry width="50" height="50" relative="1" as="geometry">
            <mxPoint x="460" y="500" as="sourcePoint" />
            <mxPoint x="540" y="470" as="targetPoint" />
          </mxGeometry>
        </mxCell>
        <mxCell id="c7ZrV1y51mjeWRv_r3tA-73" value="" style="endArrow=classic;html=1;rounded=0;exitX=1;exitY=0.5;exitDx=0;exitDy=0;entryX=-0.014;entryY=0.316;entryDx=0;entryDy=0;entryPerimeter=0;" edge="1" parent="1" source="c7ZrV1y51mjeWRv_r3tA-22" target="c7ZrV1y51mjeWRv_r3tA-23">
          <mxGeometry width="50" height="50" relative="1" as="geometry">
            <mxPoint x="580" y="430" as="sourcePoint" />
            <mxPoint x="630" y="380" as="targetPoint" />
          </mxGeometry>
        </mxCell>
        <mxCell id="c7ZrV1y51mjeWRv_r3tA-74" value="" style="endArrow=none;html=1;rounded=0;exitX=0.43;exitY=1.003;exitDx=0;exitDy=0;exitPerimeter=0;" edge="1" parent="1" source="c7ZrV1y51mjeWRv_r3tA-23">
          <mxGeometry width="50" height="50" relative="1" as="geometry">
            <mxPoint x="640" y="550" as="sourcePoint" />
            <mxPoint x="560" y="560" as="targetPoint" />
          </mxGeometry>
        </mxCell>
        <mxCell id="c7ZrV1y51mjeWRv_r3tA-75" value="" style="endArrow=classic;html=1;rounded=0;entryX=0.8;entryY=1.027;entryDx=0;entryDy=0;entryPerimeter=0;" edge="1" parent="1" target="c7ZrV1y51mjeWRv_r3tA-22">
          <mxGeometry width="50" height="50" relative="1" as="geometry">
            <mxPoint x="560" y="550" as="sourcePoint" />
            <mxPoint x="570" y="340" as="targetPoint" />
            <Array as="points">
              <mxPoint x="560" y="560" />
            </Array>
          </mxGeometry>
        </mxCell>
        <mxCell id="c7ZrV1y51mjeWRv_r3tA-76" value="&lt;font style=&quot;font-size: 10px;&quot;&gt;Login Form&lt;/font&gt;" style="text;strokeColor=none;align=center;fillColor=none;html=1;verticalAlign=middle;whiteSpace=wrap;rounded=0;" vertex="1" parent="1">
          <mxGeometry x="290" y="280" width="110" height="40" as="geometry" />
        </mxCell>
        <mxCell id="c7ZrV1y51mjeWRv_r3tA-77" value="&lt;font style=&quot;font-size: 10px;&quot;&gt;User Interface&lt;/font&gt;" style="text;strokeColor=none;align=center;fillColor=none;html=1;verticalAlign=middle;whiteSpace=wrap;rounded=0;" vertex="1" parent="1">
          <mxGeometry x="40" y="355" width="92.45" height="30" as="geometry" />
        </mxCell>
        <mxCell id="c7ZrV1y51mjeWRv_r3tA-78" value="&lt;font style=&quot;font-size: 10px;&quot;&gt;Sign Up Form&lt;/font&gt;" style="text;strokeColor=none;align=center;fillColor=none;html=1;verticalAlign=middle;whiteSpace=wrap;rounded=0;" vertex="1" parent="1">
          <mxGeometry x="290" y="355" width="110" height="40" as="geometry" />
        </mxCell>
        <mxCell id="c7ZrV1y51mjeWRv_r3tA-79" value="Successful Login" style="text;strokeColor=none;align=center;fillColor=none;html=1;verticalAlign=middle;whiteSpace=wrap;rounded=0;" vertex="1" parent="1">
          <mxGeometry x="705" y="385" width="110" height="40" as="geometry" />
        </mxCell>
        <mxCell id="c7ZrV1y51mjeWRv_r3tA-80" value="&lt;font style=&quot;font-size: 10px;&quot;&gt;Open Login&lt;/font&gt;&lt;div&gt;&lt;font style=&quot;font-size: 10px;&quot;&gt;&amp;nbsp;Form&lt;/font&gt;&lt;/div&gt;" style="text;strokeColor=none;align=center;fillColor=none;html=1;verticalAlign=middle;whiteSpace=wrap;rounded=0;" vertex="1" parent="1">
          <mxGeometry x="250" y="225" width="80" height="30" as="geometry" />
        </mxCell>
        <mxCell id="c7ZrV1y51mjeWRv_r3tA-81" value="&lt;font style=&quot;font-size: 10px;&quot;&gt;Open Sign&amp;nbsp;&lt;/font&gt;&lt;div&gt;&lt;font style=&quot;font-size: 10px;&quot;&gt;Up&amp;nbsp;&lt;/font&gt;&lt;span style=&quot;font-size: 10px; background-color: transparent; color: light-dark(rgb(0, 0, 0), rgb(255, 255, 255));&quot;&gt;Form&lt;/span&gt;&lt;/div&gt;" style="text;strokeColor=none;align=center;fillColor=none;html=1;verticalAlign=middle;whiteSpace=wrap;rounded=0;" vertex="1" parent="1">
          <mxGeometry x="250" y="385" width="80" height="30" as="geometry" />
        </mxCell>
        <mxCell id="c7ZrV1y51mjeWRv_r3tA-82" value="&lt;font style=&quot;font-size: 10px;&quot;&gt;Set&lt;/font&gt;&lt;div&gt;&lt;font style=&quot;font-size: 10px;&quot;&gt;&amp;nbsp;formData&lt;/font&gt;&lt;div&gt;&lt;font style=&quot;font-size: 10px;&quot;&gt;in&amp;nbsp;&lt;/font&gt;&lt;/div&gt;&lt;div&gt;&lt;font style=&quot;font-size: 10px;&quot;&gt;state&lt;/font&gt;&lt;/div&gt;&lt;/div&gt;" style="text;strokeColor=none;align=center;fillColor=none;html=1;verticalAlign=middle;whiteSpace=wrap;rounded=0;" vertex="1" parent="1">
          <mxGeometry x="320" y="130" width="110" height="70" as="geometry" />
        </mxCell>
        <mxCell id="c7ZrV1y51mjeWRv_r3tA-83" value="&lt;span style=&quot;font-size: 10px;&quot;&gt;update saved formData to the user frontend&lt;/span&gt;" style="text;strokeColor=none;align=center;fillColor=none;html=1;verticalAlign=middle;whiteSpace=wrap;rounded=0;" vertex="1" parent="1">
          <mxGeometry x="90" y="160" width="110" height="40" as="geometry" />
        </mxCell>
        <mxCell id="c7ZrV1y51mjeWRv_r3tA-84" value="" style="endArrow=none;html=1;rounded=0;" edge="1" parent="1">
          <mxGeometry width="50" height="50" relative="1" as="geometry">
            <mxPoint x="220" y="180" as="sourcePoint" />
            <mxPoint x="220" y="210" as="targetPoint" />
          </mxGeometry>
        </mxCell>
        <mxCell id="c7ZrV1y51mjeWRv_r3tA-85" value="" style="endArrow=none;html=1;rounded=0;" edge="1" parent="1">
          <mxGeometry width="50" height="50" relative="1" as="geometry">
            <mxPoint x="220" y="210" as="sourcePoint" />
            <mxPoint x="290" y="210" as="targetPoint" />
          </mxGeometry>
        </mxCell>
        <mxCell id="c7ZrV1y51mjeWRv_r3tA-86" value="&lt;span style=&quot;font-size: 10px;&quot;&gt;Login Clicked&lt;/span&gt;" style="text;strokeColor=none;align=center;fillColor=none;html=1;verticalAlign=middle;whiteSpace=wrap;rounded=0;" vertex="1" parent="1">
          <mxGeometry x="385" y="230" width="80" height="30" as="geometry" />
        </mxCell>
        <mxCell id="c7ZrV1y51mjeWRv_r3tA-87" value="&lt;span style=&quot;font-size: 10px;&quot;&gt;Sign Up Clicked&lt;/span&gt;" style="text;strokeColor=none;align=center;fillColor=none;html=1;verticalAlign=middle;whiteSpace=wrap;rounded=0;" vertex="1" parent="1">
          <mxGeometry x="385" y="390" width="80" height="30" as="geometry" />
        </mxCell>
        <mxCell id="c7ZrV1y51mjeWRv_r3tA-88" value="&lt;font style=&quot;font-size: 10px;&quot;&gt;Set&lt;/font&gt;&lt;div&gt;&lt;font style=&quot;font-size: 10px;&quot;&gt;&amp;nbsp;formData&lt;/font&gt;&lt;div&gt;&lt;font style=&quot;font-size: 10px;&quot;&gt;in&amp;nbsp;&lt;/font&gt;&lt;/div&gt;&lt;div&gt;&lt;font style=&quot;font-size: 10px;&quot;&gt;state&lt;/font&gt;&lt;/div&gt;&lt;/div&gt;" style="text;strokeColor=none;align=center;fillColor=none;html=1;verticalAlign=middle;whiteSpace=wrap;rounded=0;" vertex="1" parent="1">
          <mxGeometry x="360" y="470" width="40" height="70" as="geometry" />
        </mxCell>
        <mxCell id="c7ZrV1y51mjeWRv_r3tA-89" value="&lt;span style=&quot;font-size: 10px;&quot;&gt;update saved formData to the user frontend&lt;/span&gt;" style="text;strokeColor=none;align=center;fillColor=none;html=1;verticalAlign=middle;whiteSpace=wrap;rounded=0;" vertex="1" parent="1">
          <mxGeometry x="90" y="500" width="110" height="40" as="geometry" />
        </mxCell>
        <mxCell id="c7ZrV1y51mjeWRv_r3tA-90" value="" style="endArrow=none;html=1;rounded=0;exitX=0;exitY=0.75;exitDx=0;exitDy=0;" edge="1" parent="1" source="c7ZrV1y51mjeWRv_r3tA-20">
          <mxGeometry width="50" height="50" relative="1" as="geometry">
            <mxPoint x="200" y="500" as="sourcePoint" />
            <mxPoint x="200" y="600" as="targetPoint" />
          </mxGeometry>
        </mxCell>
        <mxCell id="c7ZrV1y51mjeWRv_r3tA-92" value="" style="endArrow=none;html=1;rounded=0;" edge="1" parent="1">
          <mxGeometry width="50" height="50" relative="1" as="geometry">
            <mxPoint x="200" y="600" as="sourcePoint" />
            <mxPoint x="200" y="470" as="targetPoint" />
          </mxGeometry>
        </mxCell>
        <mxCell id="c7ZrV1y51mjeWRv_r3tA-93" value="" style="endArrow=none;html=1;rounded=0;" edge="1" parent="1">
          <mxGeometry width="50" height="50" relative="1" as="geometry">
            <mxPoint x="200" y="470" as="sourcePoint" />
            <mxPoint x="240" y="470" as="targetPoint" />
          </mxGeometry>
        </mxCell>
        <mxCell id="c7ZrV1y51mjeWRv_r3tA-94" value="&lt;span style=&quot;font-size: 10px;&quot;&gt;Send formData&lt;/span&gt;" style="text;strokeColor=none;align=center;fillColor=none;html=1;verticalAlign=middle;whiteSpace=wrap;rounded=0;" vertex="1" parent="1">
          <mxGeometry x="530" y="210" width="80" height="30" as="geometry" />
        </mxCell>
        <mxCell id="c7ZrV1y51mjeWRv_r3tA-95" value="&lt;span style=&quot;font-size: 10px;&quot;&gt;Send formData&lt;/span&gt;" style="text;strokeColor=none;align=center;fillColor=none;html=1;verticalAlign=middle;whiteSpace=wrap;rounded=0;" vertex="1" parent="1">
          <mxGeometry x="530" y="440" width="80" height="30" as="geometry" />
        </mxCell>
        <mxCell id="c7ZrV1y51mjeWRv_r3tA-96" value="&lt;font style=&quot;font-size: 6px;&quot;&gt;User.find({username: formData.username})&lt;/font&gt;" style="text;strokeColor=none;align=center;fillColor=none;html=1;verticalAlign=middle;whiteSpace=wrap;rounded=0;" vertex="1" parent="1">
          <mxGeometry x="570" y="180" width="80" height="30" as="geometry" />
        </mxCell>
        <mxCell id="c7ZrV1y51mjeWRv_r3tA-97" value="&lt;span style=&quot;font-size: 10px;&quot;&gt;Returns either JSON Object or undefined&lt;/span&gt;" style="text;strokeColor=none;align=center;fillColor=none;html=1;verticalAlign=middle;whiteSpace=wrap;rounded=0;" vertex="1" parent="1">
          <mxGeometry x="550" y="80" width="90" height="40" as="geometry" />
        </mxCell>
        <mxCell id="c7ZrV1y51mjeWRv_r3tA-98" value="&lt;span style=&quot;font-size: 10px;&quot;&gt;Verify for status code 200 or 401&lt;/span&gt;" style="text;strokeColor=none;align=center;fillColor=none;html=1;verticalAlign=middle;whiteSpace=wrap;rounded=0;" vertex="1" parent="1">
          <mxGeometry x="400" y="80" width="90" height="40" as="geometry" />
        </mxCell>
        <mxCell id="c7ZrV1y51mjeWRv_r3tA-99" value="&lt;span style=&quot;font-size: 10px;&quot;&gt;Receive status&lt;/span&gt;&lt;div&gt;&lt;span style=&quot;font-size: 10px;&quot;&gt;code&lt;/span&gt;&lt;/div&gt;" style="text;strokeColor=none;align=center;fillColor=none;html=1;verticalAlign=middle;whiteSpace=wrap;rounded=0;" vertex="1" parent="1">
          <mxGeometry x="425" y="200" width="90" height="40" as="geometry" />
        </mxCell>
        <mxCell id="c7ZrV1y51mjeWRv_r3tA-101" value="" style="endArrow=none;html=1;rounded=0;exitX=1;exitY=0.5;exitDx=0;exitDy=0;" edge="1" parent="1" source="c7ZrV1y51mjeWRv_r3tA-13" target="c7ZrV1y51mjeWRv_r3tA-100">
          <mxGeometry width="50" height="50" relative="1" as="geometry">
            <mxPoint x="580" y="260" as="sourcePoint" />
            <mxPoint x="640" y="260" as="targetPoint" />
          </mxGeometry>
        </mxCell>
        <mxCell id="c7ZrV1y51mjeWRv_r3tA-100" value="&lt;font style=&quot;font-size: 8px;&quot;&gt;res.status == 200?&lt;/font&gt;" style="rhombus;whiteSpace=wrap;html=1;fillColor=#f5f5f5;strokeColor=#666666;fontColor=#333333;" vertex="1" parent="1">
          <mxGeometry x="600" y="220" width="80" height="80" as="geometry" />
        </mxCell>
        <mxCell id="c7ZrV1y51mjeWRv_r3tA-102" value="" style="endArrow=none;html=1;rounded=0;exitX=1;exitY=0.5;exitDx=0;exitDy=0;" edge="1" parent="1" source="c7ZrV1y51mjeWRv_r3tA-100">
          <mxGeometry width="50" height="50" relative="1" as="geometry">
            <mxPoint x="450" y="240" as="sourcePoint" />
            <mxPoint x="740" y="260" as="targetPoint" />
          </mxGeometry>
        </mxCell>
        <mxCell id="c7ZrV1y51mjeWRv_r3tA-103" value="" style="endArrow=none;html=1;rounded=0;" edge="1" parent="1">
          <mxGeometry width="50" height="50" relative="1" as="geometry">
            <mxPoint x="740" y="260" as="sourcePoint" />
            <mxPoint x="740" y="70" as="targetPoint" />
          </mxGeometry>
        </mxCell>
        <mxCell id="c7ZrV1y51mjeWRv_r3tA-104" value="" style="endArrow=none;html=1;rounded=0;" edge="1" parent="1">
          <mxGeometry width="50" height="50" relative="1" as="geometry">
            <mxPoint x="210" y="70" as="sourcePoint" />
            <mxPoint x="740" y="70" as="targetPoint" />
          </mxGeometry>
        </mxCell>
        <mxCell id="c7ZrV1y51mjeWRv_r3tA-105" value="" style="endArrow=classic;html=1;rounded=0;entryX=0.5;entryY=0;entryDx=0;entryDy=0;" edge="1" parent="1" target="c7ZrV1y51mjeWRv_r3tA-6">
          <mxGeometry width="50" height="50" relative="1" as="geometry">
            <mxPoint x="210" y="70" as="sourcePoint" />
            <mxPoint x="500" y="190" as="targetPoint" />
          </mxGeometry>
        </mxCell>
        <mxCell id="c7ZrV1y51mjeWRv_r3tA-107" value="&lt;span style=&quot;font-size: 10px;&quot;&gt;Register User&lt;br&gt;&lt;/span&gt;" style="text;strokeColor=none;align=center;fillColor=none;html=1;verticalAlign=middle;whiteSpace=wrap;rounded=0;" vertex="1" parent="1">
          <mxGeometry x="580" y="470" width="70" height="30" as="geometry" />
        </mxCell>
        <mxCell id="c7ZrV1y51mjeWRv_r3tA-108" value="&lt;span style=&quot;font-size: 10px;&quot;&gt;Status Code returned for User registry&lt;/span&gt;" style="text;strokeColor=none;align=center;fillColor=none;html=1;verticalAlign=middle;whiteSpace=wrap;rounded=0;" vertex="1" parent="1">
          <mxGeometry x="570" y="560" width="70" height="50" as="geometry" />
        </mxCell>
        <mxCell id="c7ZrV1y51mjeWRv_r3tA-110" value="&lt;font style=&quot;font-size: 6px;&quot;&gt;res.status == 200?&lt;/font&gt;" style="rhombus;whiteSpace=wrap;html=1;fillColor=#f5f5f5;strokeColor=#666666;fontColor=#333333;" vertex="1" parent="1">
          <mxGeometry x="430" y="560" width="60" height="60" as="geometry" />
        </mxCell>
        <mxCell id="c7ZrV1y51mjeWRv_r3tA-111" value="" style="endArrow=none;html=1;rounded=0;entryX=1;entryY=0.5;entryDx=0;entryDy=0;" edge="1" parent="1" target="c7ZrV1y51mjeWRv_r3tA-110">
          <mxGeometry width="50" height="50" relative="1" as="geometry">
            <mxPoint x="500" y="590" as="sourcePoint" />
            <mxPoint x="520" y="520" as="targetPoint" />
          </mxGeometry>
        </mxCell>
        <mxCell id="c7ZrV1y51mjeWRv_r3tA-112" value="&lt;span style=&quot;font-size: 10px;&quot;&gt;Verify&amp;nbsp;&lt;/span&gt;&lt;div&gt;&lt;span style=&quot;font-size: 10px;&quot;&gt;database&lt;/span&gt;&lt;/div&gt;&lt;div&gt;&lt;span style=&quot;font-size: 10px;&quot;&gt;&amp;nbsp;status&amp;nbsp;&lt;/span&gt;&lt;/div&gt;&lt;div&gt;&lt;span style=&quot;font-size: 10px;&quot;&gt;code&lt;/span&gt;&lt;/div&gt;" style="text;strokeColor=none;align=center;fillColor=none;html=1;verticalAlign=middle;whiteSpace=wrap;rounded=0;" vertex="1" parent="1">
          <mxGeometry x="500" y="530" width="50" height="65" as="geometry" />
        </mxCell>
        <mxCell id="c7ZrV1y51mjeWRv_r3tA-113" value="&lt;font style=&quot;font-size: 8px;&quot;&gt;Render success&lt;/font&gt;&lt;div&gt;&lt;font style=&quot;font-size: 8px;&quot;&gt;and req.login(user)&lt;/font&gt;&lt;/div&gt;" style="text;strokeColor=none;align=center;fillColor=none;html=1;verticalAlign=middle;whiteSpace=wrap;rounded=0;" vertex="1" parent="1">
          <mxGeometry x="400" y="490" width="65" height="80" as="geometry" />
        </mxCell>
        <mxCell id="c7ZrV1y51mjeWRv_r3tA-114" value="&lt;font style=&quot;font-size: 6px;&quot;&gt;Yes&lt;/font&gt;" style="text;strokeColor=none;align=center;fillColor=none;html=1;verticalAlign=middle;whiteSpace=wrap;rounded=0;" vertex="1" parent="1">
          <mxGeometry x="462.5" y="550" width="20" height="10" as="geometry" />
        </mxCell>
        <mxCell id="c7ZrV1y51mjeWRv_r3tA-115" value="&lt;font style=&quot;font-size: 6px;&quot;&gt;No&lt;/font&gt;" style="text;strokeColor=none;align=center;fillColor=none;html=1;verticalAlign=middle;whiteSpace=wrap;rounded=0;" vertex="1" parent="1">
          <mxGeometry x="465" y="610" width="15" height="20" as="geometry" />
        </mxCell>
        <mxCell id="c7ZrV1y51mjeWRv_r3tA-116" value="" style="endArrow=none;html=1;rounded=0;exitX=0.5;exitY=1;exitDx=0;exitDy=0;" edge="1" parent="1" source="c7ZrV1y51mjeWRv_r3tA-110">
          <mxGeometry width="50" height="50" relative="1" as="geometry">
            <mxPoint x="370" y="470" as="sourcePoint" />
            <mxPoint x="460" y="650" as="targetPoint" />
          </mxGeometry>
        </mxCell>
        <mxCell id="c7ZrV1y51mjeWRv_r3tA-117" value="" style="endArrow=none;html=1;rounded=0;" edge="1" parent="1">
          <mxGeometry width="50" height="50" relative="1" as="geometry">
            <mxPoint x="460" y="650" as="sourcePoint" />
            <mxPoint x="60" y="650" as="targetPoint" />
          </mxGeometry>
        </mxCell>
        <mxCell id="c7ZrV1y51mjeWRv_r3tA-119" value="" style="endArrow=none;html=1;rounded=0;" edge="1" parent="1">
          <mxGeometry width="50" height="50" relative="1" as="geometry">
            <mxPoint x="60" y="650" as="sourcePoint" />
            <mxPoint x="60" y="420" as="targetPoint" />
          </mxGeometry>
        </mxCell>
        <mxCell id="c7ZrV1y51mjeWRv_r3tA-120" value="" style="endArrow=none;html=1;rounded=0;" edge="1" parent="1">
          <mxGeometry width="50" height="50" relative="1" as="geometry">
            <mxPoint x="60" y="420" as="sourcePoint" />
            <mxPoint x="140" y="420" as="targetPoint" />
          </mxGeometry>
        </mxCell>
        <mxCell id="c7ZrV1y51mjeWRv_r3tA-121" value="&lt;font style=&quot;font-size: 6px;&quot;&gt;Yes&lt;/font&gt;" style="text;strokeColor=none;align=center;fillColor=none;html=1;verticalAlign=middle;whiteSpace=wrap;rounded=0;" vertex="1" parent="1">
          <mxGeometry x="640" y="295" width="20" height="10" as="geometry" />
        </mxCell>
        <mxCell id="c7ZrV1y51mjeWRv_r3tA-122" value="&lt;font style=&quot;font-size: 6px;&quot;&gt;No&lt;/font&gt;" style="text;strokeColor=none;align=center;fillColor=none;html=1;verticalAlign=middle;whiteSpace=wrap;rounded=0;" vertex="1" parent="1">
          <mxGeometry x="680" y="245" width="20" height="10" as="geometry" />
        </mxCell>
        <mxCell id="c7ZrV1y51mjeWRv_r3tA-123" value="&lt;font style=&quot;font-size: 8px;&quot;&gt;If no redirection, proceed to login&lt;/font&gt;" style="text;strokeColor=none;align=center;fillColor=none;html=1;verticalAlign=middle;whiteSpace=wrap;rounded=0;" vertex="1" parent="1">
          <mxGeometry x="425" y="440" width="90" height="40" as="geometry" />
        </mxCell>
        <mxCell id="c7ZrV1y51mjeWRv_r3tA-124" value="" style="rounded=0;whiteSpace=wrap;html=1;opacity=0;" vertex="1" parent="1">
          <mxGeometry x="30" y="20" width="780" height="640" as="geometry" />
        </mxCell>
      </root>
    </mxGraphModel>
  </diagram>
</mxfile>
